PathFileType	4	(X/Y/Z)	C:/Users/opensim2020/Desktop/walking_exp_matlab/subject06_walking13_straight_04.trc																																																																																																																																																				
DataRate	CameraRate	NumFrames	NumMarkers	Units	OrigDataRate	OrigDataStartFrame	OrigNumFrames																																																																																																																																																
100	100	8	50	mm	100	2911	204																																																																																																																																																
Frame#	Time	LFHD			RFHD			LBHD			RBHD			C7			T10			CLAV			STRN			RBAK			LSHO			LUPA			LELB			LFRM			LWRA			LWRB			LFIN			RSHO			RUPA			RELB			RFRM			RWRA			RWRB			RFIN			LASI			RASI			LPSI			RPSI			LTHI			LKNE			LTIB			LANK			LHEE			LTOE			RTHI			RKNE			RTIB			RANK			RHEE			RTOE			*39			*40			*41			*42			*43			*44			*45			*46			*47			*48			*49		
		X1	Y1	Z1	X2	Y2	Z2	X3	Y3	Z3	X4	Y4	Z4	X5	Y5	Z5	X6	Y6	Z6	X7	Y7	Z7	X8	Y8	Z8	X9	Y9	Z9	X10	Y10	Z10	X11	Y11	Z11	X12	Y12	Z12	X13	Y13	Z13	X14	Y14	Z14	X15	Y15	Z15	X16	Y16	Z16	X17	Y17	Z17	X18	Y18	Z18	X19	Y19	Z19	X20	Y20	Z20	X21	Y21	Z21	X22	Y22	Z22	X23	Y23	Z23	X24	Y24	Z24	X25	Y25	Z25	X26	Y26	Z26	X27	Y27	Z27	X28	Y28	Z28	X29	Y29	Z29	X30	Y30	Z30	X31	Y31	Z31	X32	Y32	Z32	X33	Y33	Z33	X34	Y34	Z34	X35	Y35	Z35	X36	Y36	Z36	X37	Y37	Z37	X38	Y38	Z38	X39	Y39	Z39	X40	Y40	Z40	X41	Y41	Z41	X42	Y42	Z42	X43	Y43	Z43	X44	Y44	Z44	X45	Y45	Z45	X46	Y46	Z46	X47	Y47	Z47	X48	Y48	Z48	X49	Y49	Z49	X50	Y50	Z50
																																																																																																																																																							
52	0.51	-788.8689	1678.67297	-1489.96179	-793.6651	1664.67871	-1359.11072	-922.51581	1624.54639	-1496.34424	-925.70099	1616.47314	-1368.14868	-923.71338	1462.70386	-1438.58118	-950.37964	1133.19629	-1425.06238	-809.80994	1387.87512	-1437.49744	-768.32709	1212.61633	-1443.422	-990.6684	1291.00085	-1355.86121	-870.49097	1416.36768	-1599.65796	-874.13922	1212.23743	-1666.8302	-878.81995	1100.18115	-1676.28674	-852.1109	952.35791	-1701.0188	-781.10529	840.68176	-1668.00452	-846.09204	832.24249	-1695.0741	-799.9082	755.44269	-1705.46301	-855.23206	1421.86353	-1277.07166	-886.7663	1224.80286	-1184.54919	-870.57605	1104.94434	-1166.99719	-827.95465	993.43829	-1148.18408	-731.18054	877.05859	-1178.93298	-783.93256	863.85645	-1139.36523	-727.80389	801.61163	-1135.59216	-775.40088	974.547	-1539.50745	-765.06519	980.6568	-1320.06348	-932.95673	999.41522	-1506.30139	-919.00232	1005.54279	-1338.5155	-795.57758	662.83215	-1604.87354	-757.45941	503.888	-1590.97595	-915.79816	315.07849	-1605.10449	-1019.98993	174.53285	-1583.66309	-1060.96912	176.13438	-1535.51563	-919.71741	74.84682	-1597.70874	-827.76733	643.13965	-1270.60864	-829.15002	518.0155	-1297.67883	-892.17358	256.96024	-1309.70117	-912.52246	73.30611	-1364.32117	-949.50909	49.05156	-1412.547	-762.04297	40.79012	-1355.51331	-891.24078	1716.24976	-1433.61841	NaN	NaN	NaN	NaN	NaN	NaN	NaN	NaN	NaN	NaN	NaN	NaN	NaN	NaN	NaN	NaN	NaN	NaN	NaN	NaN	NaN	NaN	NaN	NaN	NaN	NaN	NaN	NaN	NaN	NaN
53	0.52	-778.47247	1678.43481	-1489.78345	-783.06659	1664.51172	-1358.95288	-912.13275	1624.35791	-1495.90918	-915.16205	1616.3855	-1367.71875	-913.26678	1462.58936	-1437.96655	-940.4848	1133.16174	-1424.33508	-799.44055	1387.66687	-1437.03284	-758.29242	1212.3363	-1442.68506	-980.30267	1291.07715	-1354.89148	-860.53119	1416.09314	-1599.16821	-866.74432	1212.04272	-1666.42798	-873.17462	1100.17529	-1675.66956	-850.81598	951.95081	-1700.54395	-784.20355	837.31995	-1666.39734	-849.10681	831.64362	-1694.79932	-806.2157	752.59961	-1703.89941	-844.69232	1421.91638	-1276.60095	-875.02484	1225.06311	-1183.41272	-857.57043	1105.50269	-1165.41272	-812.19507	995.30524	-1146.71265	-712.46484	881.73029	-1178.24377	-764.41504	867.18494	-1138.21863	-706.41522	806.44843	-1135.14905	-765.17645	974.70441	-1538.40857	-758.65381	979.53192	-1319.724	-923.01343	999.47217	-1506.03772	-909.82404	1005.25769	-1338.16309	-782.05817	664.13019	-1604.29712	-741.35638	505.64819	-1589.94116	-893.78546	311.3588	-1604.29504	-992.65607	166.78479	-1582.85803	-1033.88196	166.66565	-1534.86462	-887.37695	71.87585	-1596.16846	-820.93915	642.4964	-1270.55371	-823.66974	517.28009	-1297.44104	-889.39178	256.74002	-1309.80359	-911.97327	73.41853	-1364.48438	-949.30432	49.35385	-1412.60022	-761.65582	40.40676	-1355.33228	-880.70508	1716.09497	-1433.31799	NaN	NaN	NaN	NaN	NaN	NaN	NaN	NaN	NaN	NaN	NaN	NaN	NaN	NaN	NaN	NaN	NaN	NaN	NaN	NaN	NaN	NaN	NaN	NaN	NaN	NaN	NaN	NaN	NaN	NaN
54	0.53	-768.01917	1678.0127	-1489.6239	-772.48785	1664.27856	-1358.78296	-902.00214	1624.10034	-1495.84045	-904.57758	1616.12695	-1367.32849	-902.84027	1462.33618	-1437.46155	-930.58698	1133.01038	-1423.52673	-789.06244	1387.31421	-1436.62415	-748.30096	1211.90869	-1441.90942	-969.92743	1290.9729	-1353.9082	-850.40601	1415.62878	-1598.67798	-859.37689	1211.74805	-1666.11511	-867.7099	1100.04749	-1675.0686	-849.29028	951.44312	-1699.88818	-787.40472	834.31372	-1664.25439	-851.87646	831.47632	-1694.91748	-811.84595	750.2085	-1702.14465	-834.23175	1421.82483	-1276.21057	-863.37769	1225.13892	-1182.31592	-844.66376	1106.00903	-1163.86633	-796.48358	997.08264	-1145.38184	-693.67926	886.56177	-1177.68164	-744.87476	870.39667	-1137.42615	-685.00568	811.42639	-1134.78882	-755.08771	974.87439	-1537.30298	-747.1236	979.42957	-1318.14734	-913.05194	999.35016	-1505.71338	-900.62683	1004.82422	-1337.80505	-768.07947	665.21185	-1603.91846	-725.61584	507.33401	-1589.15881	-871.49609	307.19476	-1603.51233	-964.62994	158.79591	-1581.72253	-1006.03088	156.93051	-1533.86987	-854.7514	69.10603	-1594.44653	-814.18243	641.651	-1270.50012	-818.01624	516.50775	-1297.3114	-886.63794	256.54272	-1309.91809	-911.43408	73.56431	-1364.6123	-949.05817	49.70122	-1412.75818	-761.14252	39.731	-1355.23682	-870.20538	1715.80273	-1433.09033	NaN	NaN	NaN	NaN	NaN	NaN	NaN	NaN	NaN	NaN	NaN	NaN	NaN	NaN	NaN	NaN	NaN	NaN	NaN	NaN	NaN	NaN	NaN	NaN	NaN	NaN	NaN	NaN	NaN	NaN
55	0.54	-757.52161	1677.52112	-1489.51416	-761.94904	1663.93152	-1358.62048	-891.24109	1623.43274	-1495.17175	-894.00336	1615.73718	-1367.06848	-892.30896	1461.92371	-1436.95886	-920.69409	1132.66541	-1422.73193	-778.72382	1386.81848	-1436.19958	-738.11511	1211.34363	-1441.21313	-959.63605	1290.79614	-1353.02698	-840.1261	1415.02734	-1598.22192	-852.09839	1211.36243	-1665.8418	-862.38794	1099.93347	-1674.73193	-847.55927	950.90741	-1699.20032	-790.24591	831.76013	-1661.90271	-853.55475	831.05463	-1694.62158	-816.81616	748.19489	-1700.17859	-823.7948	1421.57397	-1275.84351	-851.98792	1225.11108	-1181.32629	-831.79608	1106.36182	-1162.36938	-780.86139	998.86621	-1144.08289	-674.64709	891.6366	-1177.40552	-725.50543	873.78699	-1136.63135	-664.15088	816.56744	-1134.30042	-744.84052	974.93182	-1536.33289	-740.31366	978.14441	-1317.86414	-903.12189	999.06708	-1505.37048	-891.35858	1004.21375	-1337.36011	-753.98456	666.32562	-1604.21912	-710.1684	508.80884	-1588.51294	-848.8313	302.69537	-1602.78809	-935.72516	150.45288	-1580.13416	-977.27515	146.95657	-1532.61523	-821.81213	66.41851	-1592.35193	-807.06818	640.81921	-1270.64148	-812.02448	515.56915	-1297.32092	-883.77563	256.34708	-1310.07776	-910.82666	73.70757	-1364.901	-948.51135	49.95126	-1413.00403	-760.55695	39.18237	-1354.84192	-859.69476	1715.33789	-1432.92969	NaN	NaN	NaN	NaN	NaN	NaN	NaN	NaN	NaN	NaN	NaN	NaN	NaN	NaN	NaN	NaN	NaN	NaN	NaN	NaN	NaN	NaN	NaN	NaN	NaN	NaN	NaN	NaN	NaN	NaN
56	0.55	-747.00433	1676.86414	-1489.40222	-751.38135	1663.422	-1358.5011	-880.72864	1622.77576	-1494.9939	-883.38123	1615.23486	-1366.84399	-881.80035	1461.41418	-1436.61328	-910.83392	1132.24634	-1421.97412	-768.23987	1386.16907	-1435.90454	-728.07568	1210.6366	-1440.49158	-949.29712	1290.47742	-1352.14355	-829.67303	1414.25513	-1597.81897	-844.83899	1210.91394	-1665.53271	-857.24054	1099.75745	-1674.45178	-845.60907	950.41553	-1698.56409	-792.78113	829.65576	-1659.37598	-855.2381	831.09955	-1694.82813	-821.151	746.49951	-1697.97314	-813.3988	1421.20117	-1275.48279	-840.41095	1225.03149	-1180.18591	-819.03949	1106.60901	-1160.89221	-765.28436	1000.59644	-1142.92163	-656.61536	896.44812	-1177.06323	-706.71936	877.19958	-1135.76941	-643.3916	821.88031	-1134.05957	-734.60803	974.78046	-1535.37122	-733.56531	976.64087	-1317.19043	-893.57513	998.75403	-1505.08997	-882.10327	1003.38483	-1336.94141	-740.63068	666.96246	-1604.38513	-695.05603	510.07074	-1587.9834	-825.93976	297.86057	-1601.86304	-906.53033	142.37424	-1578.53101	-948.09259	137.20473	-1530.8949	-788.37384	63.72589	-1589.89551	-799.97937	639.75836	-1270.72913	-806.08484	514.49457	-1297.56897	-880.67413	256.21286	-1310.39978	-910.08679	73.90015	-1365.19556	-948.09515	50.43988	-1413.22034	-760.22333	38.82302	-1354.2146	-849.16962	1714.74207	-1432.79138	NaN	NaN	NaN	NaN	NaN	NaN	NaN	NaN	NaN	NaN	NaN	NaN	NaN	NaN	NaN	NaN	NaN	NaN	NaN	NaN	NaN	NaN	NaN	NaN	NaN	NaN	NaN	NaN	NaN	NaN
57	0.56	-736.48877	1676.12317	-1489.38696	-740.65222	1662.85522	-1358.46521	-870.16315	1621.95532	-1494.79651	-872.76416	1614.59509	-1366.60718	-871.24066	1460.84644	-1436.29712	-900.95044	1131.73218	-1421.27686	-757.8902	1385.38708	-1435.54016	-718.03296	1209.75659	-1439.78662	-939.03894	1290.12073	-1351.46057	-819.12976	1413.40894	-1597.43713	-837.62939	1210.42957	-1665.2854	-852.11914	1099.57898	-1674.20239	-843.8172	949.9989	-1697.95422	-795.13916	827.9726	-1656.5387	-856.21503	831.0954	-1694.7428	-824.87592	745.16675	-1695.67273	-802.97437	1420.69849	-1275.17322	-828.76788	1224.72998	-1179.28577	-806.29736	1106.69116	-1159.58154	-749.89459	1002.3197	-1141.80212	-638.57422	901.36584	-1176.74939	-687.83459	880.62292	-1135.16821	-622.81171	827.2403	-1133.78735	-724.3479	974.4389	-1534.50073	-720.0484	976.55133	-1315.43933	-883.47937	998.13934	-1504.71655	-872.73035	1002.40948	-1336.60205	-727.69379	667.8269	-1604.16711	-680.31506	511.17084	-1587.68445	-802.81934	293.01825	-1600.79724	-876.53052	134.23077	-1576.68433	-917.87854	127.39134	-1529.42334	-754.94202	61.4874	-1587.31787	-792.60114	638.7774	-1270.90112	-799.42859	513.53406	-1297.35498	-877.29919	256.02283	-1310.81006	-909.30878	74.16862	-1365.47827	-947.62604	50.98365	-1413.43994	-759.6167	38.30404	-1353.91516	-838.60199	1714.02356	-1432.76453	NaN	NaN	NaN	NaN	NaN	NaN	NaN	NaN	NaN	NaN	NaN	NaN	NaN	NaN	NaN	NaN	NaN	NaN	NaN	NaN	NaN	NaN	NaN	NaN	NaN	NaN	NaN	NaN	NaN	NaN
58	0.57	-725.88452	1675.28394	-1489.35999	-730.03387	1662.16626	-1358.42639	-859.82495	1621.12451	-1494.92871	-862.09735	1613.8429	-1366.48853	-860.62134	1460.14417	-1435.97205	-890.97046	1131.07068	-1420.56189	-747.4173	1384.52893	-1435.29456	-707.88617	1208.82312	-1439.13513	-928.74414	1289.63147	-1350.78149	-808.52826	1412.43921	-1597.06335	-830.33124	1210.01343	-1665.10754	-847.09247	1099.49756	-1674.09851	-841.76422	949.57977	-1697.20374	-797.34515	826.5694	-1653.67798	-856.84827	831.0896	-1694.35229	-828.11047	744.16345	-1693.224	-792.54248	1420.10193	-1274.87061	-817.68945	1224.31653	-1178.53162	-793.66376	1106.77808	-1158.22229	-734.66821	1003.97314	-1140.74609	-620.73291	906.35577	-1176.44299	-669.19293	884.11884	-1134.63147	-602.39764	832.7326	-1133.61646	-714.07275	974.08636	-1533.61475	-710.62177	975.39679	-1314.50891	-873.45026	997.43262	-1504.45825	-863.38666	1001.31805	-1336.32031	-714.86523	668.3985	-1604.44348	-666.02167	512.12946	-1587.59888	-779.63629	288.08151	-1599.74011	-845.94934	126.24213	-1574.83801	-887.22461	117.81436	-1527.43335	-720.87836	59.39189	-1584.23096	-784.96411	637.64728	-1271.11182	-792.89648	512.46851	-1297.67371	-873.7525	255.80864	-1311.10925	-908.5835	74.47059	-1365.75098	-947.23822	51.53326	-1413.65503	-759.09253	37.91457	-1353.78406	-828.01471	1713.19495	-1432.74841	NaN	NaN	NaN	NaN	NaN	NaN	NaN	NaN	NaN	NaN	NaN	NaN	NaN	NaN	NaN	NaN	NaN	NaN	NaN	NaN	NaN	NaN	NaN	NaN	NaN	NaN	NaN	NaN	NaN	NaN
59	0.58	-715.17871	1674.25403	-1489.4043	-719.37115	1661.33813	-1358.42029	-849.16321	1620.06628	-1494.83215	-851.40356	1612.94324	-1366.37781	-849.98389	1459.32361	-1435.71191	-881.02332	1130.3147	-1419.91504	-736.97675	1383.51599	-1434.97705	-697.77496	1207.73596	-1438.50037	-918.45313	1289.08459	-1350.27124	-797.85315	1411.40735	-1596.70801	-823.00757	1209.5481	-1664.95764	-842.04779	1099.36926	-1673.90247	-839.66937	949.24725	-1696.36023	-799.16187	825.56714	-1651.12256	-857.26941	831.17639	-1693.73682	-830.78558	743.43542	-1690.8291	-782.13416	1419.41724	-1274.62	-806.23456	1223.98267	-1177.39148	-780.95227	1106.71216	-1157.10107	-719.52222	1005.58704	-1139.84875	-603.20526	911.28827	-1176.25476	-650.45477	887.78723	-1134.27124	-582.71271	838.33423	-1133.42358	-703.71252	973.69495	-1532.75537	-701.42047	974.1076	-1313.6626	-863.31415	996.56299	-1504.31653	-853.93494	1000.09082	-1336.16235	-702.57739	668.55383	-1604.65979	-652.20428	512.68091	-1587.4812	-756.38092	283.30316	-1598.70947	-814.89465	118.54031	-1572.74475	-855.98431	108.6265	-1525.71729	-686.72931	57.69895	-1581.13525	-777.32983	636.44543	-1271.30371	-785.70905	511.28839	-1297.50403	-869.97589	255.42433	-1311.46106	-907.88831	74.74367	-1365.95178	-946.89319	52.05487	-1413.76062	-758.63678	37.59757	-1353.63904	-817.35046	1712.27087	-1432.78235	NaN	NaN	NaN	NaN	NaN	NaN	NaN	NaN	NaN	NaN	NaN	NaN	NaN	NaN	NaN	NaN	NaN	NaN	NaN	NaN	NaN	NaN	NaN	NaN	NaN	NaN	NaN	NaN	NaN	NaN
